<?xml version="1.0" standalone="no"?><!DOCTYPE svg PUBLIC "-//W3C//DTD SVG 1.1//EN" "http://www.w3.org/Graphics/SVG/1.1/DTD/svg11.dtd"><svg t="1542096166629" class="icon" style="" viewBox="0 0 1024 1024" version="1.1" xmlns="http://www.w3.org/2000/svg" p-id="4390" xmlns:xlink="http://www.w3.org/1999/xlink" width="200" height="200"><defs><style type="text/css"></style></defs><path d="M864.982 774.635V459.422c0-169.49-116.684-314.72-277.97-353.464-6.772-43.593-44.437-76.964-89.9-76.964-46.339 0-84.578 34.669-90.257 79.495-156.447 42.307-268.066 185.214-268.066 350.932v315.212h-9.267c-37.073 0-67.115 30.079-67.115 67.168s30.042 67.168 67.115 67.168h261.175c12.842 49.632 57.906 86.035 111.188 86.035s98.346-36.403 111.188-86.035h251.628c37.073 0 67.115-30.079 67.115-67.168 0.001-36.994-29.89-67.015-66.834-67.166z m-0.28 86.034H569.534l-1.186 22.901c-1.828 35.298-31.021 63.134-66.463 63.134s-64.634-27.836-66.463-63.134l-1.186-22.901H129.522c-10.385 0-18.815-8.441-18.815-18.867 0-10.427 8.43-18.867 18.815-18.867h57.567V459.422c0-149.261 104.426-277.189 248.271-308.165l19.067-4.105v-27.091c0-23.626 19.117-42.766 42.684-42.766s42.685 19.14 42.685 42.766v25.763l19.751 3.659c148.07 27.432 257.135 157.353 257.135 309.939v363.512h48.02c10.384 0 18.814 8.44 18.814 18.867 0 10.428-8.43 18.868-18.814 18.868z" fill="#E9EAEC" p-id="4391"></path><path d="M545.002 261.245l-8.84 47.485c68.152 12.688 118.413 72.851 118.413 143.548h48.301c0-94.017-66.9-174.097-157.874-191.033z" fill="#E9EAEC" p-id="4392"></path></svg>