<?xml version="1.0" standalone="no"?><!DOCTYPE svg PUBLIC "-//W3C//DTD SVG 1.1//EN" "http://www.w3.org/Graphics/SVG/1.1/DTD/svg11.dtd"><svg t="1542096091101" class="icon" style="" viewBox="0 0 1024 1024" version="1.1" xmlns="http://www.w3.org/2000/svg" p-id="4212" xmlns:xlink="http://www.w3.org/1999/xlink" width="200" height="200"><defs><style type="text/css"></style></defs><path d="M529.515 14.91666667c-223.773 0-405.176 181.404-405.176 405.176 0 114.553 47.822 221.49 130.312 297.69l274.864 274.864 274.864-274.864a407.195 407.195 0 0 0 62.763-73.615c43.81-65.888 67.55-143.247 67.55-224.075C934.691 196.32066667 753.288 14.91666667 529.515 14.91666667z m295.973 601.554c-15.794 23.752-34.402 45.543-56.124 65.586L529.515 921.90566667 288.928 681.34766667c-72.551-66.847-114.568-160.65-114.568-261.255 0-196.146 159.008-355.155 355.155-355.155 196.147 0 355.155 159.008 355.155 355.155-0.001 70.896-20.788 138.635-59.182 196.378z" fill="#E9EAEC" p-id="4213"></path><path d="M534.517 154.97766667c-154.707 0-280.122 125.415-280.122 280.122S379.81 715.22166667 534.517 715.22166667 814.639 589.80666667 814.639 435.09966667 689.224 154.97766667 534.517 154.97766667zM732.68 552.02266667a230.866 230.866 0 0 1-31.844 41.992 231.322 231.322 0 0 1-14.329 13.769 230.438 230.438 0 0 1-47.701 32.405c-31.314 15.956-66.734 25.011-104.289 25.011s-72.974-9.055-104.289-25.011a230.288 230.288 0 0 1-40.005-25.905 231.28 231.28 0 0 1-22.025-20.269c-8.833-9.242-16.941-19.181-24.149-29.793-25.008-36.818-39.633-81.26-39.633-129.123 0-127.08 103.019-230.1 230.1-230.1 72.078 0 136.389 33.163 178.579 85.037 0.122 0.15 0.236 0.305 0.358 0.455 0.327 0.404 0.639 0.819 0.963 1.226 1.759 2.203 3.503 4.417 5.18 6.685 28.279 38.224 45.02 85.5 45.02 136.698 0.001 42.698-11.671 82.653-31.936 116.923z" fill="#E9EAEC" p-id="4214"></path><path d="M700.18 331.36466667h-14.234v27.265h-28.024l0.427-40.889c0-15.054-12.725-27.249-28.49-27.249H444.834c-15.722 0-28.466 12.195-28.466 27.249v40.889h-28.455v-27.265h-14.256c-7.861 0-14.209 6.11-14.216 13.613v13.657a13.672 13.672 0 0 0 4.235 9.701 14.154 14.154 0 0 0 9.981 3.918h42.711v17.395c-8.481 4.727-14.241 13.424-14.241 23.476v92.39h270.169l-0.225-34.63-0.376-57.76c0-10.274-5.61-19.115-14.125-23.766l0.184-17.104h42.426c7.754 0.079 14.117-6.008 14.237-13.625v-13.64c0-7.51-6.372-13.625-14.237-13.625z m-255.346 0a13.693 13.693 0 0 1 4.247-9.711 14.18 14.18 0 0 1 9.989-3.914h156.553c3.728-0.049 7.323 1.358 9.989 3.914a13.69 13.69 0 0 1 4.247 9.711v68.135H444.834v-68.135z m42.711 136.274v-13.624h99.628v13.624h-99.628z m99.628-27.264h-99.628v-13.625h99.628v13.625z m-128.102 54.513h-14.237c-7.861 0-14.233-6.099-14.233-13.625a13.686 13.686 0 0 1 4.244-9.711c0.304-0.291 0.721-0.407 1.048-0.668 2.543-2.027 5.641-3.289 8.941-3.246h14.237c3.493 0 6.648 1.25 9.125 3.246 3.1 2.499 5.112 6.195 5.112 10.379 0 7.526-6.372 13.625-14.237 13.625z m128.102 0h-99.628v-13.625h99.628v13.625z m56.963-13.624c0 7.525-6.376 13.625-14.276 13.625h-14.237c-7.861 0-14.233-6.099-14.233-13.625 0-4.183 2.012-7.879 5.111-10.379 2.476-1.996 5.631-3.246 9.122-3.246h14.237c3.508 0 6.673 1.25 9.155 3.246 3.108 2.499 5.121 6.195 5.121 10.379zM440.245 578.62266667c0.054 3.101 1.702 6.062 4.593 8.227 2.883 2.166 6.769 3.358 10.796 3.316h15.392c4.031 0.042 7.913-1.15 10.8-3.316 2.887-2.166 4.539-5.126 4.593-8.227V555.53666667h-46.174v23.086zM590.31 578.62266667c0.054 3.101 1.702 6.062 4.593 8.227 2.883 2.166 6.769 3.358 10.796 3.316h15.392c4.031 0.042 7.913-1.15 10.8-3.316 2.887-2.166 4.539-5.126 4.593-8.227V555.53666667H590.31v23.086zM394.071 520.90666667v11.565c0.126 6.449 6.645 11.597 14.583 11.521h259.42c7.934 0.077 14.458-5.072 14.583-11.521V520.90666667H394.071z" fill="#E9EAEC" p-id="4215"></path></svg>