<?xml version="1.0" encoding="UTF-8"?>
<svg width="1144px" height="679px" viewBox="0 0 1144 679" version="1.1" xmlns="http://www.w3.org/2000/svg" xmlns:xlink="http://www.w3.org/1999/xlink">
    <!-- Generator: Sketch 52.4 (67378) - http://www.bohemiancoding.com/sketch -->
    <title>流程bg@2x</title>
    <desc>Created with Sketch.</desc>
    <defs>
        <path d="M1,-1.77635684e-14 L71.8616079,-7.10542736e-15 C72.4930427,-1.17080343e-14 73.0873939,0.298189554 73.4648754,0.804369001 L80.4527587,10.1746897 C80.9980185,10.9058495 80.9795343,11.9132934 80.4078206,12.6239594 L73.4654499,21.2536386 C73.0858118,21.7255459 72.5127786,22 71.9071206,22 L1,22 L1,-1.77635684e-14 Z" id="path-1"></path>
        <filter x="-8.8%" y="-22.7%" width="117.7%" height="163.6%" filterUnits="objectBoundingBox" id="filter-2">
            <feOffset dx="0" dy="2" in="SourceAlpha" result="shadowOffsetOuter1"></feOffset>
            <feGaussianBlur stdDeviation="2" in="shadowOffsetOuter1" result="shadowBlurOuter1"></feGaussianBlur>
            <feColorMatrix values="0 0 0 0 0.570392219   0 0 0 0 0.570392219   0 0 0 0 0.570392219  0 0 0 0.5 0" type="matrix" in="shadowBlurOuter1"></feColorMatrix>
        </filter>
        <path d="M1,-1.95399252e-14 L71.8616079,-8.8817842e-15 C72.4930427,-1.34843911e-14 73.0873939,0.298189554 73.4648754,0.804369001 L80.4527587,10.1746897 C80.9980185,10.9058495 80.9795343,11.9132934 80.4078206,12.6239594 L73.4654499,21.2536386 C73.0858118,21.7255459 72.5127786,22 71.9071206,22 L1,22 L1,-1.95399252e-14 Z" id="path-3"></path>
        <filter x="-8.8%" y="-22.7%" width="117.7%" height="163.6%" filterUnits="objectBoundingBox" id="filter-4">
            <feOffset dx="0" dy="2" in="SourceAlpha" result="shadowOffsetOuter1"></feOffset>
            <feGaussianBlur stdDeviation="2" in="shadowOffsetOuter1" result="shadowBlurOuter1"></feGaussianBlur>
            <feColorMatrix values="0 0 0 0 0.570392219   0 0 0 0 0.570392219   0 0 0 0 0.570392219  0 0 0 0.5 0" type="matrix" in="shadowBlurOuter1"></feColorMatrix>
        </filter>
        <path d="M1,-1.95399252e-14 L71.8616079,-8.8817842e-15 C72.4930427,-1.34843911e-14 73.0873939,0.298189554 73.4648754,0.804369001 L80.4527587,10.1746897 C80.9980185,10.9058495 80.9795343,11.9132934 80.4078206,12.6239594 L73.4654499,21.2536386 C73.0858118,21.7255459 72.5127786,22 71.9071206,22 L1,22 L1,-1.95399252e-14 Z" id="path-5"></path>
        <filter x="-8.8%" y="-22.7%" width="117.7%" height="163.6%" filterUnits="objectBoundingBox" id="filter-6">
            <feOffset dx="0" dy="2" in="SourceAlpha" result="shadowOffsetOuter1"></feOffset>
            <feGaussianBlur stdDeviation="2" in="shadowOffsetOuter1" result="shadowBlurOuter1"></feGaussianBlur>
            <feColorMatrix values="0 0 0 0 0.570392219   0 0 0 0 0.570392219   0 0 0 0 0.570392219  0 0 0 0.5 0" type="matrix" in="shadowBlurOuter1"></feColorMatrix>
        </filter>
        <path d="M0,0 L71.0870768,1.77635684e-14 C71.7174631,1.76477683e-14 72.3109547,0.297205316 72.6885616,0.801982349 L79.6981202,10.172213 C80.2458101,10.9043534 80.2272585,11.9146925 79.6530601,12.6262331 L72.6890158,21.2560024 C72.3093301,21.7265049 71.7371851,22 71.1325911,22 L0,22 L0,0 Z" id="path-7"></path>
        <filter x="-8.8%" y="-22.7%" width="117.6%" height="163.6%" filterUnits="objectBoundingBox" id="filter-8">
            <feOffset dx="0" dy="2" in="SourceAlpha" result="shadowOffsetOuter1"></feOffset>
            <feGaussianBlur stdDeviation="2" in="shadowOffsetOuter1" result="shadowBlurOuter1"></feGaussianBlur>
            <feColorMatrix values="0 0 0 0 0.570392219   0 0 0 0 0.570392219   0 0 0 0 0.570392219  0 0 0 0.5 0" type="matrix" in="shadowBlurOuter1"></feColorMatrix>
        </filter>
        <path d="M1,-1.95399252e-14 L71.8616079,-8.8817842e-15 C72.4930427,-1.34843911e-14 73.0873939,0.298189554 73.4648754,0.804369001 L80.4527587,10.1746897 C80.9980185,10.9058495 80.9795343,11.9132934 80.4078206,12.6239594 L73.4654499,21.2536386 C73.0858118,21.7255459 72.5127786,22 71.9071206,22 L1,22 L1,-1.95399252e-14 Z" id="path-9"></path>
        <filter x="-8.8%" y="-22.7%" width="117.7%" height="163.6%" filterUnits="objectBoundingBox" id="filter-10">
            <feOffset dx="0" dy="2" in="SourceAlpha" result="shadowOffsetOuter1"></feOffset>
            <feGaussianBlur stdDeviation="2" in="shadowOffsetOuter1" result="shadowBlurOuter1"></feGaussianBlur>
            <feColorMatrix values="0 0 0 0 0.570392219   0 0 0 0 0.570392219   0 0 0 0 0.570392219  0 0 0 0.5 0" type="matrix" in="shadowBlurOuter1"></feColorMatrix>
        </filter>
    </defs>
    <g id="v1.06" stroke="none" stroke-width="1" fill="none" fill-rule="evenodd">
        <g id="v1.06流程中心-copy" transform="translate(-200.000000, -70.000000)">
            <g id="流程bg" transform="translate(200.000000, 70.000000)">
                <g id="分组-7">
                    <rect id="Rectangle-7" fill="#FFFFFF" x="0" y="0" width="1144" height="679"></rect>
                    <rect id="矩形" fill="#F9F9F9" fill-rule="nonzero" x="20" y="49" width="346" height="390"></rect>
                    <path d="M186.5,295 L186.5,165" id="直线-4" stroke="#9DA1B0" stroke-linecap="square" fill-rule="nonzero"></path>
                    <path d="M186.5,232 L186.5,165" id="直线-4-copy-7" stroke="#9DA1B0" stroke-linecap="square" fill-rule="nonzero"></path>
                    <path d="M260.5,195 L260.5,131" id="直线-4-copy" stroke="#9DA1B0" stroke-linecap="square" fill-rule="nonzero"></path>
                    <path d="M259.5,344 L259.5,284" id="直线-4-copy-2" stroke="#9DA1B0" stroke-linecap="square" fill-rule="nonzero"></path>
                    <path d="M186.5,295 L134,295" id="直线-5" stroke="#9DA1B0" stroke-linecap="square" fill-rule="nonzero"></path>
                    <path d="" id="直线-3" stroke="#979797" stroke-linecap="square" fill-rule="nonzero"></path>
                    <rect id="矩形-copy" fill="#F9F9F9" fill-rule="nonzero" x="396" y="49" width="493" height="180"></rect>
                    <rect id="矩形-copy-30" fill="#F9F9F9" fill-rule="nonzero" x="919" y="49" width="207" height="180"></rect>
                    <rect id="矩形-copy-28" fill="#F9F9F9" fill-rule="nonzero" x="396" y="259" width="730" height="180"></rect>
                    <rect id="矩形-copy-3" fill="#F9F9F9" fill-rule="nonzero" x="20" y="469" width="346" height="180"></rect>
                    <path d="M85.5,604.004743 L85.5,590.097704" id="直线-4-copy-2" stroke="#9DA1B0" stroke-linecap="square" fill-rule="nonzero"></path>
                    <path d="M85.5,604.004743 L291,604.004743" id="直线-4-copy-6" stroke="#9DA1B0" stroke-linecap="square" fill-rule="nonzero"></path>
                    <rect id="矩形-copy-2" fill="#F9F9F9" fill-rule="nonzero" x="396" y="469" width="730" height="180"></rect>
                    <path d="M1018.5,545 L1018.5,185" id="直线-4-copy-3" stroke="#9DA1B0" stroke-linecap="square" fill-rule="nonzero"></path>
                    <path id="直线" d="M219.871665,232.5 L187,232.5 L186.5,232.5 L186.5,231.5 L187,231.5 L219.871665,231.5 L219.871665,227.5 L228.871665,232 L219.871665,236.5 L219.871665,232.5 Z" fill="#9DA1B0" fill-rule="nonzero"></path>
                    <path id="直线-copy" d="M459.823331,131.5 L260.5,131.5 L260,131.5 L260,130.5 L260.5,130.5 L459.823331,130.5 L459.823331,126.5 L468.823331,131 L459.823331,135.5 L459.823331,131.5 Z" fill="#9DA1B0" fill-rule="nonzero"></path>
                    <path id="直线-copy-3" d="M568.871665,131.5 L545.5,131.5 L545,131.5 L545,130.5 L545.5,130.5 L568.871665,130.5 L568.871665,126.5 L577.871665,131 L568.871665,135.5 L568.871665,131.5 Z" fill="#9DA1B0" fill-rule="nonzero"></path>
                    <path id="直线-copy-4" d="M671.871665,131.5 L648.5,131.5 L648,131.5 L648,130.5 L648.5,130.5 L671.871665,130.5 L671.871665,126.5 L680.871665,131 L671.871665,135.5 L671.871665,131.5 Z" fill="#9DA1B0" fill-rule="nonzero"></path>
                    <path id="直线-copy-5" d="M773.871665,131.5 L750.5,131.5 L750,131.5 L750,130.5 L750.5,130.5 L773.871665,130.5 L773.871665,126.5 L782.871665,131 L773.871665,135.5 L773.871665,131.5 Z" fill="#9DA1B0" fill-rule="nonzero"></path>
                    <path id="直线-copy-18" d="M962.5,131.5 L854.5,131.5 L854,131.5 L854,130.5 L854.5,130.5 L962.5,130.5 L962.5,126.5 L971.5,131 L962.5,135.5 L962.5,131.5 Z" fill="#9DA1B0" fill-rule="nonzero"></path>
                    <path id="直线-copy-11" d="M568.871665,343.5 L545.5,343.5 L545,343.5 L545,342.5 L545.5,342.5 L568.871665,342.5 L568.871665,338.5 L577.871665,343 L568.871665,347.5 L568.871665,343.5 Z" fill="#9DA1B0" fill-rule="nonzero"></path>
                    <path id="直线-copy-15" d="M568.871665,545.5 L545.5,545.5 L545,545.5 L545,544.5 L545.5,544.5 L568.871665,544.5 L568.871665,540.5 L577.871665,545 L568.871665,549.5 L568.871665,545.5 Z" fill="#9DA1B0" fill-rule="nonzero"></path>
                    <path id="直线-copy-16" d="M668.871665,545.5 L645.5,545.5 L645,545.5 L645,544.5 L645.5,544.5 L668.871665,544.5 L668.871665,540.5 L677.871665,545 L668.871665,549.5 L668.871665,545.5 Z" fill="#9DA1B0" fill-rule="nonzero"></path>
                    <path id="直线-copy-19" d="M1010.5,545.5 L756.5,545.5 L756,545.5 L756,544.5 L756.5,544.5 L1010.5,544.5 L1010.5,540.5 L1019.5,545 L1010.5,549.5 L1010.5,545.5 Z" fill="#9DA1B0" fill-rule="nonzero"></path>
                    <path id="直线-copy-13" d="M147.871665,545.5 L124.5,545.5 L124,545.5 L124,544.5 L124.5,544.5 L147.871665,544.5 L147.871665,540.5 L156.871665,545 L147.871665,549.5 L147.871665,545.5 Z" fill="#9DA1B0" fill-rule="nonzero"></path>
                    <path id="直线-copy-14" d="M250.871665,545.5 L227.5,545.5 L227,545.5 L227,544.5 L227.5,544.5 L250.871665,544.5 L250.871665,540.5 L259.871665,545 L250.871665,549.5 L250.871665,545.5 Z" fill="#9DA1B0" fill-rule="nonzero"></path>
                    <path id="直线-copy-20" d="M291.729463,593.983389 L291.999817,603.986491 L292.013326,604.486309 L291.013691,604.513326 L291.000183,604.013509 L290.729828,594.010406 L286.731289,594.118474 L290.986491,585.000183 L295.728003,593.87532 L291.729463,593.983389 Z" fill="#9DA1B0" fill-rule="nonzero"></path>
                    <path id="直线-copy-10" d="M671.871665,343.5 L648.5,343.5 L648,343.5 L648,342.5 L648.5,342.5 L671.871665,342.5 L671.871665,338.5 L680.871665,343 L671.871665,347.5 L671.871665,343.5 Z" fill="#9DA1B0" fill-rule="nonzero"></path>
                    <path id="直线-copy-9" d="M773.871665,343.5 L750.5,343.5 L750,343.5 L750,342.5 L750.5,342.5 L773.871665,342.5 L773.871665,338.5 L782.871665,343 L773.871665,347.5 L773.871665,343.5 Z" fill="#9DA1B0" fill-rule="nonzero"></path>
                    <path id="直线-copy-2" d="M459.823331,344.5 L260.076923,344.5 L259.576923,344.5 L259.576923,343.5 L260.076923,343.5 L459.823331,343.5 L459.823331,339.5 L468.823331,344 L459.823331,348.5 L459.823331,344.5 Z" fill="#9DA1B0" fill-rule="nonzero"></path>
                    <path d="M134.5,165 L186.5,165" id="直线-2" stroke="#9DA1B0" stroke-linecap="square" fill-rule="nonzero"></path>
                    <path d="M854.5,342 L1018.5,342" id="直线-2-copy-4" stroke="#9DA1B0" stroke-linecap="square" fill-rule="nonzero"></path>
                    <g id="分组" transform="translate(14.000000, 56.000000)">
                        <polygon id="路径-2" fill="#3A3C42" fill-rule="nonzero" points="0.993392944 21.9987946 5.95796175 25.4652605 5.95796175 21.9987946"></polygon>
                        <g id="矩形" fill-rule="nonzero">
                            <use fill="black" fill-opacity="1" filter="url(#filter-2)" xlink:href="#path-1"></use>
                            <use fill="#777B89" xlink:href="#path-1"></use>
                        </g>
                        <text id="受理开单" font-family="PingFangSC-Medium, PingFang SC" font-size="14" font-weight="400" fill="#FFFFFF">
                            <tspan x="10" y="16">受理开单</tspan>
                        </text>
                    </g>
                    <g id="分组-4" transform="translate(390.000000, 56.000000)">
                        <polygon id="路径-2" fill="#5B5C60" fill-rule="nonzero" points="0.993392944 21.9987946 5.95796175 25.4652605 5.95796175 21.9987946"></polygon>
                        <g id="矩形" fill-rule="nonzero">
                            <use fill="black" fill-opacity="1" filter="url(#filter-4)" xlink:href="#path-3"></use>
                            <use fill="#777B89" xlink:href="#path-3"></use>
                        </g>
                        <text id="提货管理" font-family="PingFangSC-Medium, PingFang SC" font-size="14" font-weight="400" fill="#FFFFFF">
                            <tspan x="10" y="16">提货管理</tspan>
                        </text>
                    </g>
                    <g id="分组-5" transform="translate(390.000000, 266.000000)">
                        <polygon id="路径-2" fill="#5B5C60" fill-rule="nonzero" points="0.993392944 21.9987946 5.95796175 25.4652605 5.95796175 21.9987946"></polygon>
                        <g id="矩形" fill-rule="nonzero">
                            <use fill="black" fill-opacity="1" filter="url(#filter-6)" xlink:href="#path-5"></use>
                            <use fill="#777B89" xlink:href="#path-5"></use>
                        </g>
                        <text id="送货管理" font-family="PingFangSC-Medium, PingFang SC" font-size="14" font-weight="400" fill="#FFFFFF">
                            <tspan x="10" y="16">送货管理</tspan>
                        </text>
                    </g>
                    <g id="分组-3" transform="translate(15.000000, 476.000000)">
                        <polygon id="路径-2" fill="#5B5C60" fill-rule="nonzero" points="0 22 5 25 5 22"></polygon>
                        <g id="矩形" fill-rule="nonzero">
                            <use fill="black" fill-opacity="1" filter="url(#filter-8)" xlink:href="#path-7"></use>
                            <use fill="#777B89" xlink:href="#path-7"></use>
                        </g>
                        <text id="财务管理" font-family="PingFangSC-Medium, PingFang SC" font-size="14" font-weight="400" fill="#FFFFFF">
                            <tspan x="9" y="16">财务管理</tspan>
                        </text>
                    </g>
                    <g id="分组-6" transform="translate(390.000000, 476.000000)">
                        <polygon id="路径-2" fill="#5B5C60" fill-rule="nonzero" points="0.993392944 21.9987946 5.95796175 25.4652605 5.95796175 21.9987946"></polygon>
                        <g id="矩形" fill-rule="nonzero">
                            <use fill="black" fill-opacity="1" filter="url(#filter-10)" xlink:href="#path-9"></use>
                            <use fill="#777B89" xlink:href="#path-9"></use>
                        </g>
                        <text id="回单管理" font-family="PingFangSC-Medium, PingFang SC" font-size="14" font-weight="400" fill="#FFFFFF">
                            <tspan x="10" y="16">回单管理</tspan>
                        </text>
                    </g>
                </g>
            </g>
        </g>
    </g>
</svg>