<?xml version="1.0" encoding="UTF-8"?>
<svg width="1144px" height="650px" viewBox="0 0 1144 650" version="1.1" xmlns="http://www.w3.org/2000/svg" xmlns:xlink="http://www.w3.org/1999/xlink">
    <!-- Generator: Sketch 52.2 (67145) - http://www.bohemiancoding.com/sketch -->
    <title>背景</title>
    <desc>Created with Sketch.</desc>
    <defs>
        <path d="M1,-1.77635684e-14 L71.8616079,-7.10542736e-15 C72.4930427,-1.17080343e-14 73.0873939,0.298189554 73.4648754,0.804369001 L80.4527587,10.1746897 C80.9980185,10.9058495 80.9795343,11.9132934 80.4078206,12.6239594 L73.4654499,21.2536386 C73.0858118,21.7255459 72.5127786,22 71.9071206,22 L1,22 L1,-1.77635684e-14 Z" id="path-1"></path>
        <filter x="-8.8%" y="-22.7%" width="117.7%" height="163.6%" filterUnits="objectBoundingBox" id="filter-2">
            <feOffset dx="0" dy="2" in="SourceAlpha" result="shadowOffsetOuter1"></feOffset>
            <feGaussianBlur stdDeviation="2" in="shadowOffsetOuter1" result="shadowBlurOuter1"></feGaussianBlur>
            <feColorMatrix values="0 0 0 0 0.570392219   0 0 0 0 0.570392219   0 0 0 0 0.570392219  0 0 0 0.5 0" type="matrix" in="shadowBlurOuter1"></feColorMatrix>
        </filter>
        <path d="M456,27 L526.861608,27 C527.493043,27 528.087394,27.2981896 528.464875,27.804369 L535.452759,37.1746897 C535.998019,37.9058495 535.979534,38.9132934 535.407821,39.6239594 L528.46545,48.2536386 C528.085812,48.7255459 527.512779,49 526.907121,49 L456,49 L456,27 Z" id="path-3"></path>
        <filter x="-8.8%" y="-22.7%" width="117.7%" height="163.6%" filterUnits="objectBoundingBox" id="filter-4">
            <feOffset dx="0" dy="2" in="SourceAlpha" result="shadowOffsetOuter1"></feOffset>
            <feGaussianBlur stdDeviation="2" in="shadowOffsetOuter1" result="shadowBlurOuter1"></feGaussianBlur>
            <feColorMatrix values="0 0 0 0 0.570392219   0 0 0 0 0.570392219   0 0 0 0 0.570392219  0 0 0 0.5 0" type="matrix" in="shadowBlurOuter1"></feColorMatrix>
        </filter>
        <path d="M456,181 L526.861608,181 C527.493043,181 528.087394,181.29819 528.464875,181.804369 L535.452759,191.17469 C535.998019,191.905849 535.979534,192.913293 535.407821,193.623959 L528.46545,202.253639 C528.085812,202.725546 527.512779,203 526.907121,203 L456,203 L456,181 Z" id="path-5"></path>
        <filter x="-8.8%" y="-22.7%" width="117.7%" height="163.6%" filterUnits="objectBoundingBox" id="filter-6">
            <feOffset dx="0" dy="2" in="SourceAlpha" result="shadowOffsetOuter1"></feOffset>
            <feGaussianBlur stdDeviation="2" in="shadowOffsetOuter1" result="shadowBlurOuter1"></feGaussianBlur>
            <feColorMatrix values="0 0 0 0 0.570392219   0 0 0 0 0.570392219   0 0 0 0 0.570392219  0 0 0 0.5 0" type="matrix" in="shadowBlurOuter1"></feColorMatrix>
        </filter>
        <path d="M456,336 L526.861608,336 C527.493043,336 528.087394,336.29819 528.464875,336.804369 L535.452759,346.17469 C535.998019,346.905849 535.979534,347.913293 535.407821,348.623959 L528.46545,357.253639 C528.085812,357.725546 527.512779,358 526.907121,358 L456,358 L456,336 Z" id="path-7"></path>
        <filter x="-8.8%" y="-22.7%" width="117.7%" height="163.6%" filterUnits="objectBoundingBox" id="filter-8">
            <feOffset dx="0" dy="2" in="SourceAlpha" result="shadowOffsetOuter1"></feOffset>
            <feGaussianBlur stdDeviation="2" in="shadowOffsetOuter1" result="shadowBlurOuter1"></feGaussianBlur>
            <feColorMatrix values="0 0 0 0 0.570392219   0 0 0 0 0.570392219   0 0 0 0 0.570392219  0 0 0 0.5 0" type="matrix" in="shadowBlurOuter1"></feColorMatrix>
        </filter>
        <path d="M15,491 L85.8616079,491 C86.4930427,491 87.0873939,491.29819 87.4648754,491.804369 L94.4527587,501.17469 C94.9980185,501.905849 94.9795343,502.913293 94.4078206,503.623959 L87.4654499,512.253639 C87.0858118,512.725546 86.5127786,513 85.9071206,513 L15,513 L15,491 Z" id="path-9"></path>
        <filter x="-8.8%" y="-22.7%" width="117.7%" height="163.6%" filterUnits="objectBoundingBox" id="filter-10">
            <feOffset dx="0" dy="2" in="SourceAlpha" result="shadowOffsetOuter1"></feOffset>
            <feGaussianBlur stdDeviation="2" in="shadowOffsetOuter1" result="shadowBlurOuter1"></feGaussianBlur>
            <feColorMatrix values="0 0 0 0 0.570392219   0 0 0 0 0.570392219   0 0 0 0 0.570392219  0 0 0 0.5 0" type="matrix" in="shadowBlurOuter1"></feColorMatrix>
        </filter>
        <path d="M456,491 L526.861608,491 C527.493043,491 528.087394,491.29819 528.464875,491.804369 L535.452759,501.17469 C535.998019,501.905849 535.979534,502.913293 535.407821,503.623959 L528.46545,512.253639 C528.085812,512.725546 527.512779,513 526.907121,513 L456,513 L456,491 Z" id="path-11"></path>
        <filter x="-8.8%" y="-22.7%" width="117.7%" height="163.6%" filterUnits="objectBoundingBox" id="filter-12">
            <feOffset dx="0" dy="2" in="SourceAlpha" result="shadowOffsetOuter1"></feOffset>
            <feGaussianBlur stdDeviation="2" in="shadowOffsetOuter1" result="shadowBlurOuter1"></feGaussianBlur>
            <feColorMatrix values="0 0 0 0 0.570392219   0 0 0 0 0.570392219   0 0 0 0 0.570392219  0 0 0 0.5 0" type="matrix" in="shadowBlurOuter1"></feColorMatrix>
        </filter>
    </defs>
    <g id="Page-1" stroke="none" stroke-width="1" fill="none" fill-rule="evenodd">
        <g id="流程中心v1.2-copy" transform="translate(-200.000000, -69.000000)">
            <g id="背景" transform="translate(200.000000, 69.000000)">
                <rect id="Rectangle-7" fill="#FFFFFF" x="0" y="0" width="1144" height="650"></rect>
                <rect id="矩形" fill="#F9F9F9" fill-rule="nonzero" x="20" y="20" width="422" height="445"></rect>
                <path d="M216.5,286 L216.5,156" id="直线-4" stroke="#9DA1B0" stroke-linecap="square" fill-rule="nonzero"></path>
                <path d="M290.5,181 L289.5,82" id="直线-4-copy" stroke="#9DA1B0" stroke-linecap="square" fill-rule="nonzero"></path>
                <path d="M289.5,385.295143 L289.5,286" id="直线-4-copy-2" stroke="#9DA1B0" stroke-linecap="square" fill-rule="nonzero"></path>
                <path d="M216.5,286 L164,286" id="直线-5" stroke="#9DA1B0" stroke-linecap="square" fill-rule="nonzero"></path>
                <path d="" id="直线-3" stroke="#979797" stroke-linecap="square" fill-rule="nonzero"></path>
                <rect id="矩形-copy" fill="#F9F9F9" fill-rule="nonzero" x="461" y="20" width="665" height="135"></rect>
                <rect id="矩形-copy-27" fill="#F9F9F9" fill-rule="nonzero" x="461" y="175.147572" width="665" height="135"></rect>
                <rect id="矩形-copy-28" fill="#F9F9F9" fill-rule="nonzero" x="461" y="330" width="665" height="135"></rect>
                <rect id="矩形-copy-3" fill="#F9F9F9" fill-rule="nonzero" x="20" y="485" width="422" height="135"></rect>
                <path d="M115.5,605.004743 L115.5,591.097704" id="直线-4-copy-2" stroke="#9DA1B0" stroke-linecap="square" fill-rule="nonzero"></path>
                <path d="M115.5,605.004743 L321,605.004743" id="直线-4-copy-6" stroke="#9DA1B0" stroke-linecap="square" fill-rule="nonzero"></path>
                <rect id="矩形-copy-2" fill="#F9F9F9" fill-rule="nonzero" x="461" y="485" width="665" height="135"></rect>
                <path id="直线" d="M249.871665,223.5 L217,223.5 L216.5,223.5 L216.5,222.5 L217,222.5 L249.871665,222.5 L249.871665,218.5 L258.871665,223 L249.871665,227.5 L249.871665,223.5 Z" fill="#9DA1B0" fill-rule="nonzero"></path>
                <path id="直线-copy" d="M531.687997,82.5 L290.292308,82.5 L289.792308,82.5 L289.792308,81.5 L290.292308,81.5 L531.687997,81.5 L531.687997,77.5 L540.687997,82 L531.687997,86.5 L531.687997,82.5 Z" fill="#9DA1B0" fill-rule="nonzero"></path>
                <path id="直线-copy-3" d="M638.871665,82.5 L615.5,82.5 L615,82.5 L615,81.5 L615.5,81.5 L638.871665,81.5 L638.871665,77.5 L647.871665,82 L638.871665,86.5 L638.871665,82.5 Z" fill="#9DA1B0" fill-rule="nonzero"></path>
                <path id="直线-copy-21" d="M576,185.5 L576,134 L576,133.5 L577,133.5 L577,134 L577,185.5 L581,185.5 L576.5,194.5 L572,185.5 L576,185.5 Z" fill="#9DA1B0" fill-rule="nonzero"></path>
                <path id="直线-copy-4" d="M741.871665,82.5 L718.5,82.5 L718,82.5 L718,81.5 L718.5,81.5 L741.871665,81.5 L741.871665,77.5 L750.871665,82 L741.871665,86.5 L741.871665,82.5 Z" fill="#9DA1B0" fill-rule="nonzero"></path>
                <path id="直线-copy-5" d="M843.871665,82.5 L820.5,82.5 L820,82.5 L820,81.5 L820.5,81.5 L843.871665,81.5 L843.871665,77.5 L852.871665,82 L843.871665,86.5 L843.871665,82.5 Z" fill="#9DA1B0" fill-rule="nonzero"></path>
                <path id="直线-copy-8" d="M638.871665,228.5 L615.5,228.5 L615,228.5 L615,227.5 L615.5,227.5 L638.871665,227.5 L638.871665,223.5 L647.871665,228 L638.871665,232.5 L638.871665,228.5 Z" fill="#9DA1B0" fill-rule="nonzero"></path>
                <path id="直线-copy-17" d="M578.871665,296.5 L578.871665,351 L578.871665,351.5 L577.871665,351.5 L577.871665,351 L577.871665,296.5 L573.871665,296.5 L578.371665,287.5 L582.871665,296.5 L578.871665,296.5 Z" fill="#9DA1B0" fill-rule="nonzero"></path>
                <path id="直线-copy-7" d="M741.871665,228.5 L718.5,228.5 L718,228.5 L718,227.5 L718.5,227.5 L741.871665,227.5 L741.871665,223.5 L750.871665,228 L741.871665,232.5 L741.871665,228.5 Z" fill="#9DA1B0" fill-rule="nonzero"></path>
                <path id="直线-copy-6" d="M843.871665,228.5 L820.5,228.5 L820,228.5 L820,227.5 L820.5,227.5 L843.871665,227.5 L843.871665,223.5 L852.871665,228 L843.871665,232.5 L843.871665,228.5 Z" fill="#9DA1B0" fill-rule="nonzero"></path>
                <path id="直线-copy-11" d="M638.871665,384.5 L615.5,384.5 L615,384.5 L615,383.5 L615.5,383.5 L638.871665,383.5 L638.871665,379.5 L647.871665,384 L638.871665,388.5 L638.871665,384.5 Z" fill="#9DA1B0" fill-rule="nonzero"></path>
                <path id="直线-copy-18" d="M593,346.044508 L593,343.129476 L593,342.629476 L594,342.629476 L594,343.129476 L594,346.044508 L598,346.044508 L593.5,355.044508 L589,346.044508 L593,346.044508 Z" fill="#9DA1B0" fill-rule="nonzero"></path>
                <path id="直线-copy-15" d="M638.871665,536.5 L615.5,536.5 L615,536.5 L615,535.5 L615.5,535.5 L638.871665,535.5 L638.871665,531.5 L647.871665,536 L638.871665,540.5 L638.871665,536.5 Z" fill="#9DA1B0" fill-rule="nonzero"></path>
                <path id="直线-copy-16" d="M738.871665,536.5 L715.5,536.5 L715,536.5 L715,535.5 L715.5,535.5 L738.871665,535.5 L738.871665,531.5 L747.871665,536 L738.871665,540.5 L738.871665,536.5 Z" fill="#9DA1B0" fill-rule="nonzero"></path>
                <path id="直线-copy-19" d="M1078.87166,536.5 L826,536.5 L825.5,536.5 L825.5,535.5 L826,535.5 L1078.87166,535.5 L1078.87166,531.5 L1087.87166,536 L1078.87166,540.5 L1078.87166,536.5 Z" fill="#9DA1B0" fill-rule="nonzero"></path>
                <path id="直线-copy-13" d="M177.871665,536.5 L154.5,536.5 L154,536.5 L154,535.5 L154.5,535.5 L177.871665,535.5 L177.871665,531.5 L186.871665,536 L177.871665,540.5 L177.871665,536.5 Z" fill="#9DA1B0" fill-rule="nonzero"></path>
                <path id="直线-copy-14" d="M280.871665,536.5 L257.5,536.5 L257,536.5 L257,535.5 L257.5,535.5 L280.871665,535.5 L280.871665,531.5 L289.871665,536 L280.871665,540.5 L280.871665,536.5 Z" fill="#9DA1B0" fill-rule="nonzero"></path>
                <path id="直线-copy-20" d="M321.729463,594.983389 L321.999817,604.986491 L322.013326,605.486309 L321.013691,605.513326 L321.000183,605.013509 L320.729828,595.010406 L316.731289,595.118474 L320.986491,586.000183 L325.728003,594.87532 L321.729463,594.983389 Z" fill="#9DA1B0" fill-rule="nonzero"></path>
                <path id="直线-copy-10" d="M741.871665,384.5 L718.5,384.5 L718,384.5 L718,383.5 L718.5,383.5 L741.871665,383.5 L741.871665,379.5 L750.871665,384 L741.871665,388.5 L741.871665,384.5 Z" fill="#9DA1B0" fill-rule="nonzero"></path>
                <path id="直线-copy-9" d="M843.871665,384.5 L820.5,384.5 L820,384.5 L820,383.5 L820.5,383.5 L843.871665,383.5 L843.871665,379.5 L852.871665,384 L843.871665,388.5 L843.871665,384.5 Z" fill="#9DA1B0" fill-rule="nonzero"></path>
                <path id="直线-copy-12" d="M947.871665,384.5 L924.5,384.5 L924,384.5 L924,383.5 L924.5,383.5 L947.871665,383.5 L947.871665,379.5 L956.871665,384 L947.871665,388.5 L947.871665,384.5 Z" fill="#9DA1B0" fill-rule="nonzero"></path>
                <path id="直线-copy-2" d="M531.687997,386.5 L290.292308,386.5 L289.792308,386.5 L289.792308,385.5 L290.292308,385.5 L531.687997,385.5 L531.687997,381.5 L540.687997,386 L531.687997,390.5 L531.687997,386.5 Z" fill="#9DA1B0" fill-rule="nonzero"></path>
                <path d="M164,156 L216,156" id="直线-2" stroke="#9DA1B0" stroke-linecap="square" fill-rule="nonzero"></path>
                <path d="M978.5,342.147572 L978.5,83" id="直线-4-copy-3" stroke="#9DA1B0" stroke-linecap="square" fill-rule="nonzero"></path>
                <path d="M926.5,83 L978.5,83" id="直线-2-copy" stroke="#9DA1B0" stroke-linecap="square" fill-rule="nonzero"></path>
                <path d="M1058.5,535 L1058.5,383" id="直线-4-copy-5" stroke="#9DA1B0" stroke-linecap="square" fill-rule="nonzero"></path>
                <path d="M1026.5,383 L1058.5,383" id="直线-2-copy-4" stroke="#9DA1B0" stroke-linecap="square" fill-rule="nonzero"></path>
                <path d="M1087,535 L1088.5,229" id="直线-4-copy-4" stroke="#9DA1B0" stroke-linecap="square" fill-rule="nonzero"></path>
                <path d="M926.5,229 L1087,229" id="直线-2-copy-3" stroke="#9DA1B0" stroke-linecap="square" fill-rule="nonzero"></path>
                <path d="M594,343.147572 L978.5,343.147572" id="直线-2-copy-2" stroke="#9DA1B0" stroke-linecap="square" fill-rule="nonzero"></path>
                <g id="分组" transform="translate(14.000000, 27.000000)">
                    <polygon id="路径-2" fill="#3A3C42" fill-rule="nonzero" points="0.993392944 21.9987946 5.95796175 25.4652605 5.95796175 21.9987946"></polygon>
                    <g id="矩形" fill-rule="nonzero">
                        <use fill="black" fill-opacity="1" filter="url(#filter-2)" xlink:href="#path-1"></use>
                        <use fill="#777B89" xlink:href="#path-1"></use>
                    </g>
                    <text id="受理开单" font-family="PingFangSC-Medium, PingFang SC" font-size="14" font-weight="400" fill="#FFFFFF">
                        <tspan x="10" y="16">受理开单</tspan>
                    </text>
                </g>
                <polygon id="路径-2" fill="#5B5C60" fill-rule="nonzero" points="455.993393 48.9987946 460.957962 52.4652605 460.957962 48.9987946"></polygon>
                <g id="矩形" fill-rule="nonzero">
                    <use fill="black" fill-opacity="1" filter="url(#filter-4)" xlink:href="#path-3"></use>
                    <use fill="#777B89" xlink:href="#path-3"></use>
                </g>
                <text id="提货管理" font-family="PingFangSC-Medium, PingFang SC" font-size="14" font-weight="400" fill="#FFFFFF">
                    <tspan x="465" y="43">提货管理</tspan>
                </text>
                <polygon id="路径-2" fill="#5B5C60" fill-rule="nonzero" points="455.993393 202.998795 460.957962 206.465261 460.957962 202.998795"></polygon>
                <g id="矩形" fill-rule="nonzero">
                    <use fill="black" fill-opacity="1" filter="url(#filter-6)" xlink:href="#path-5"></use>
                    <use fill="#777B89" xlink:href="#path-5"></use>
                </g>
                <text id="外转管理" font-family="PingFangSC-Medium, PingFang SC" font-size="14" font-weight="400" fill="#FFFFFF">
                    <tspan x="465" y="197">外转管理</tspan>
                </text>
                <polygon id="路径-2" fill="#5B5C60" fill-rule="nonzero" points="455.993393 357.998795 460.957962 361.465261 460.957962 357.998795"></polygon>
                <g id="矩形" fill-rule="nonzero">
                    <use fill="black" fill-opacity="1" filter="url(#filter-8)" xlink:href="#path-7"></use>
                    <use fill="#777B89" xlink:href="#path-7"></use>
                </g>
                <text id="送货管理" font-family="PingFangSC-Medium, PingFang SC" font-size="14" font-weight="400" fill="#FFFFFF">
                    <tspan x="465" y="352">送货管理</tspan>
                </text>
                <polygon id="路径-2" fill="#5B5C60" fill-rule="nonzero" points="14.9933929 512.998795 19.9579618 516.465261 19.9579618 512.998795"></polygon>
                <g id="矩形" fill-rule="nonzero">
                    <use fill="black" fill-opacity="1" filter="url(#filter-10)" xlink:href="#path-9"></use>
                    <use fill="#777B89" xlink:href="#path-9"></use>
                </g>
                <text id="财务管理" font-family="PingFangSC-Medium, PingFang SC" font-size="14" font-weight="400" fill="#FFFFFF">
                    <tspan x="24" y="507">财务管理</tspan>
                </text>
                <polygon id="路径-2" fill="#5B5C60" fill-rule="nonzero" points="455.993393 512.998795 460.957962 516.465261 460.957962 512.998795"></polygon>
                <g id="矩形" fill-rule="nonzero">
                    <use fill="black" fill-opacity="1" filter="url(#filter-12)" xlink:href="#path-11"></use>
                    <use fill="#777B89" xlink:href="#path-11"></use>
                </g>
                <text id="回单管理" font-family="PingFangSC-Medium, PingFang SC" font-size="14" font-weight="400" fill="#FFFFFF">
                    <tspan x="465" y="507">回单管理</tspan>
                </text>
            </g>
        </g>
    </g>
</svg>
